<mxfile host="www.draw.io" modified="2019-10-18T06:29:02.989Z" agent="Mozilla/5.0 (Windows NT 6.1; Win64; x64) AppleWebKit/537.36 (KHTML, like Gecko) Chrome/74.0.3729.169 Safari/537.36" etag="n_Mjodkg75aHkbLV8eE4" version="12.1.3" type="github" pages="1">
  <diagram id="antKLneOxoVloimx6mmk" name="第 1 页">
    <mxGraphModel dx="1408" dy="1917" grid="1" gridSize="10" guides="1" tooltips="1" connect="1" arrows="1" fold="1" page="1" pageScale="1" pageWidth="827" pageHeight="1169" background="#FFF2CC" math="0" shadow="1">
      <root>
        <mxCell id="0"/>
        <mxCell id="1" parent="0"/>
        <mxCell id="5Nl5XFaOehjqlyuvTrR6-2" value="筹码" style="shape=umlActor;verticalLabelPosition=bottom;labelBackgroundColor=none;verticalAlign=top;outlineConnect=0;fontStyle=1;fontSize=18;labelBorderColor=none;fontFamily=Helvetica;textOpacity=90;fillColor=#ffcd28;strokeColor=#d79b00;gradientColor=#ffa500;" parent="1" vertex="1">
          <mxGeometry x="120" y="150" width="30" height="60" as="geometry"/>
        </mxCell>
        <mxCell id="5Nl5XFaOehjqlyuvTrR6-3" value="业绩" style="shape=umlActor;verticalLabelPosition=bottom;labelBackgroundColor=none;verticalAlign=top;outlineConnect=0;fontStyle=1;fontSize=18;labelBorderColor=none;fontFamily=Helvetica;textOpacity=90;fillColor=#ffcd28;strokeColor=#d79b00;gradientColor=#ffa500;" parent="1" vertex="1">
          <mxGeometry x="115" y="280" width="30" height="60" as="geometry"/>
        </mxCell>
        <mxCell id="5Nl5XFaOehjqlyuvTrR6-4" value="股性" style="shape=umlActor;verticalLabelPosition=bottom;labelBackgroundColor=none;verticalAlign=top;outlineConnect=0;fontStyle=1;fontSize=18;labelBorderColor=none;fontFamily=Helvetica;textOpacity=90;fillColor=#ffcd28;strokeColor=#d79b00;gradientColor=#ffa500;" parent="1" vertex="1">
          <mxGeometry x="115" y="390" width="30" height="60" as="geometry"/>
        </mxCell>
        <mxCell id="5Nl5XFaOehjqlyuvTrR6-5" value="形态" style="shape=umlActor;verticalLabelPosition=bottom;labelBackgroundColor=none;verticalAlign=top;outlineConnect=0;fontStyle=1;fontSize=18;labelBorderColor=none;fontFamily=Helvetica;textOpacity=90;fillColor=#ffcd28;strokeColor=#d79b00;gradientColor=#ffa500;" parent="1" vertex="1">
          <mxGeometry x="115" y="510" width="30" height="60" as="geometry"/>
        </mxCell>
        <mxCell id="5Nl5XFaOehjqlyuvTrR6-6" value="思路&#xa;1.低价潜伏，3点即卖&#xa;2.主力周、月级别吸筹超过3次&#xa;3.业绩增长，市盈率低于1&#xa;4.股性超过30分&#xa;5.左侧交易，价格偏离5周期较大&#xa;6.仓位控制，每只每次不超过4000，补仓跌幅需超2%&#xa;7.资金链期控制在12个月" style="text;strokeColor=#d79b00;fillColor=#ffcd28;spacing=5;spacingTop=-20;whiteSpace=wrap;overflow=hidden;rounded=0;fontStyle=1;fontSize=18;labelBorderColor=none;fontFamily=Helvetica;labelBackgroundColor=none;textOpacity=90;gradientColor=#ffa500;" parent="1" vertex="1">
          <mxGeometry x="115" y="-90" width="620" height="170" as="geometry"/>
        </mxCell>
        <mxCell id="5Nl5XFaOehjqlyuvTrR6-7" value="周、月吸筹超过3次" style="shape=process;whiteSpace=wrap;backgroundOutline=1;fontStyle=1;fontSize=18;labelBorderColor=none;fontFamily=Helvetica;labelBackgroundColor=none;textOpacity=90;fillColor=#ffcd28;strokeColor=#d79b00;gradientColor=#ffa500;" parent="1" vertex="1">
          <mxGeometry x="270" y="120" width="260" height="60" as="geometry"/>
        </mxCell>
        <mxCell id="5Nl5XFaOehjqlyuvTrR6-8" value="年、季相对低位" style="shape=process;whiteSpace=wrap;backgroundOutline=1;fontStyle=1;fontSize=18;labelBorderColor=none;fontFamily=Helvetica;labelBackgroundColor=none;textOpacity=90;fillColor=#ffcd28;strokeColor=#d79b00;gradientColor=#ffa500;" parent="1" vertex="1">
          <mxGeometry x="270" y="200" width="260" height="60" as="geometry"/>
        </mxCell>
        <mxCell id="5Nl5XFaOehjqlyuvTrR6-9" value="业绩预增、市盈率低于1" style="shape=process;whiteSpace=wrap;backgroundOutline=1;fontStyle=1;fontSize=18;labelBorderColor=none;fontFamily=Helvetica;labelBackgroundColor=none;textOpacity=90;fillColor=#ffcd28;strokeColor=#d79b00;gradientColor=#ffa500;" parent="1" vertex="1">
          <mxGeometry x="270" y="280" width="260" height="60" as="geometry"/>
        </mxCell>
        <mxCell id="5Nl5XFaOehjqlyuvTrR6-10" value="股性超30分" style="shape=process;whiteSpace=wrap;backgroundOutline=1;fontStyle=1;fontSize=18;labelBorderColor=none;fontFamily=Helvetica;labelBackgroundColor=none;textOpacity=90;fillColor=#ffcd28;strokeColor=#d79b00;gradientColor=#ffa500;" parent="1" vertex="1">
          <mxGeometry x="270" y="360" width="260" height="60" as="geometry"/>
        </mxCell>
        <mxCell id="5Nl5XFaOehjqlyuvTrR6-11" value="左侧交易" style="shape=process;whiteSpace=wrap;backgroundOutline=1;fontStyle=1;fontSize=18;labelBorderColor=none;fontFamily=Helvetica;labelBackgroundColor=none;textOpacity=90;fillColor=#ffcd28;strokeColor=#d79b00;gradientColor=#ffa500;" parent="1" vertex="1">
          <mxGeometry x="570" y="120" width="210" height="140" as="geometry"/>
        </mxCell>
        <mxCell id="5Nl5XFaOehjqlyuvTrR6-12" value="仓位控制&#xa;每只每次不超过4000补仓条件:跌幅&amp;gt;2%" style="shape=process;whiteSpace=wrap;backgroundOutline=1;fontStyle=1;fontSize=18;labelBorderColor=none;fontFamily=Helvetica;labelBackgroundColor=none;textOpacity=90;fillColor=#ffcd28;strokeColor=#d79b00;gradientColor=#ffa500;" parent="1" vertex="1">
          <mxGeometry x="270" y="440" width="260" height="60" as="geometry"/>
        </mxCell>
        <mxCell id="5Nl5XFaOehjqlyuvTrR6-13" value="资金链期&lt;br style=&quot;font-size: 18px;&quot;&gt;控制在12个月" style="shape=process;whiteSpace=wrap;backgroundOutline=1;fontStyle=1;fontSize=18;labelBorderColor=none;fontFamily=Helvetica;labelBackgroundColor=none;textOpacity=90;fillColor=#ffcd28;strokeColor=#d79b00;gradientColor=#ffa500;" parent="1" vertex="1">
          <mxGeometry x="270" y="520" width="260" height="60" as="geometry"/>
        </mxCell>
      </root>
    </mxGraphModel>
  </diagram>
</mxfile>
